<svg xmlns="http://www.w3.org/2000/svg" width="202" height="66" viewBox="0 0 202 66" fill="none"><path fill-rule="evenodd" clip-rule="evenodd" d="M35.7546 1.57693L54.2454 12.2398C57.8844 14.3555 60 17.9521 60 22.1834V43.5939C60 47.8252 57.9267 51.4218 54.2454 53.5375L35.7546 64.2004C33.0466 65.766 30 66.1891 27.165 65.3851C27.165 43.7208 27.165 22.0565 27.165 0.34984C30.0423 -0.369483 33.0466 0.0113454 35.7546 1.57693ZM32.8773 59.2497L51.3681 48.5868C53.2299 47.4867 54.2454 45.7942 54.2454 43.5939V22.2257C54.2454 20.0678 53.2299 18.3329 51.3681 17.2328L32.8773 6.56988V59.2497ZM21.4104 62.5501L5.75458 53.5375C2.11565 51.4218 0 47.8252 0 43.5939V22.2257C0 17.9944 2.07333 14.3978 5.75458 12.2821L21.4104 3.26946V9.91261L8.63186 17.2751C6.77009 18.3752 5.75458 20.0678 5.75458 22.2681V43.5939C5.75458 45.7518 6.77009 47.4867 8.63186 48.5868L21.4104 55.9493V62.5501Z" fill="#FFC400"></path><path d="M82.0677 54.8206H80.6335V49.98H75.3446V54.8206H74V44.2429H75.4342V48.8147H80.7231V44.2429H82.1573V54.8206H82.0677ZM92.3765 50.5178H89.8665V54.8206H88.4322V44.2429H91.9283C93.0936 44.2429 93.99 44.5119 94.7071 45.0497C95.3346 45.5876 95.6932 46.3943 95.6932 47.3804C95.6932 48.0079 95.5139 48.6354 95.1553 49.0836C94.7968 49.5318 94.3486 49.98 93.6315 50.1593L96.1414 54.6414V54.731H94.6175L92.3765 50.5178ZM89.9561 49.4421H92.1076C92.4661 49.4421 92.8247 49.3525 93.0936 49.2629C93.3625 49.1732 93.6314 48.994 93.8107 48.8147C93.99 48.6354 94.1693 48.4561 94.2589 48.1872C94.3486 47.9183 94.4382 47.6493 94.4382 47.3804C94.4382 47.1115 94.4382 46.8426 94.3486 46.5736C94.2589 46.3047 94.0797 46.1254 93.9004 45.9461C93.7211 45.7669 93.4522 45.5876 93.1833 45.4979C92.9143 45.4083 92.5558 45.3186 92.1076 45.3186H90.0458V49.4421H89.9561ZM111.291 52.1314C111.291 51.8624 111.291 51.6832 111.201 51.5039C111.111 51.3246 111.022 51.1453 110.843 50.966C110.663 50.7868 110.394 50.6971 110.036 50.5178C109.677 50.3385 109.319 50.2489 108.781 50.0696C108.243 49.8903 107.795 49.7111 107.347 49.5318C106.898 49.3525 106.54 49.0836 106.271 48.9043C106.002 48.6354 105.733 48.3664 105.554 48.0975C105.374 47.7389 105.285 47.3804 105.285 47.0219C105.285 46.5736 105.374 46.215 105.554 45.8565C105.733 45.4979 106.002 45.229 106.271 44.9601C106.629 44.6911 106.988 44.5119 107.436 44.3326C107.884 44.1533 108.333 44.1533 108.87 44.1533C109.498 44.1533 110.036 44.243 110.484 44.4222C110.932 44.6015 111.38 44.8704 111.649 45.1394C112.008 45.4083 112.187 45.7669 112.366 46.1254C112.546 46.484 112.635 46.9322 112.635 47.2908H111.201C111.201 47.0218 111.111 46.7529 111.022 46.484C110.932 46.215 110.753 46.0358 110.574 45.8565C110.394 45.6772 110.125 45.4979 109.857 45.4083C109.588 45.3186 109.229 45.229 108.87 45.229C108.512 45.229 108.153 45.229 107.884 45.3186C107.615 45.4083 107.347 45.498 107.167 45.6772C106.988 45.8565 106.898 46.0358 106.809 46.2151C106.719 46.3943 106.719 46.6633 106.719 46.9322C106.719 47.1115 106.809 47.3804 106.898 47.5597C106.988 47.739 107.167 47.9182 107.347 48.0975C107.526 48.2768 107.795 48.3664 108.153 48.5457C108.422 48.6354 108.87 48.8147 109.229 48.9043C109.857 49.0836 110.305 49.2628 110.753 49.4421C111.201 49.6214 111.56 49.8904 111.829 50.1593C112.098 50.4282 112.277 50.6971 112.456 51.0557C112.635 51.4143 112.635 51.7728 112.635 52.1314C112.635 52.5796 112.546 52.9382 112.366 53.2967C112.187 53.6553 111.918 53.9242 111.649 54.1932C111.291 54.4621 110.932 54.6413 110.484 54.731C110.036 54.8206 109.498 54.9103 108.96 54.9103C108.602 54.9103 108.333 54.9102 107.974 54.8206C107.616 54.731 107.347 54.6413 107.078 54.5517C106.809 54.462 106.54 54.2828 106.271 54.1035C106.002 53.9242 105.823 53.7449 105.643 53.476C105.464 53.2071 105.285 52.9382 105.195 52.6692C105.106 52.4003 105.016 52.0417 105.016 51.6832H106.45C106.45 52.0417 106.54 52.4003 106.629 52.5796C106.809 52.8485 106.988 53.0278 107.167 53.2071C107.436 53.3864 107.705 53.476 107.974 53.5657C108.243 53.6553 108.602 53.6553 108.96 53.6553C109.677 53.6553 110.215 53.476 110.663 53.2071C111.112 53.1174 111.291 52.6692 111.291 52.1314ZM126.53 49.8903C126.53 50.6971 126.44 51.4143 126.261 52.0417C126.082 52.6692 125.813 53.2071 125.454 53.6553C125.096 54.1035 124.647 54.4621 124.11 54.6414C123.572 54.9103 123.034 54.9999 122.406 54.9999C121.779 54.9999 121.241 54.9103 120.703 54.6414C120.165 54.3724 119.717 54.1035 119.358 53.6553C119 53.2071 118.731 52.6692 118.462 52.0417C118.283 51.4143 118.193 50.6971 118.193 49.8903V49.2629C118.193 48.4561 118.283 47.739 118.462 47.1115C118.641 46.484 119 45.9461 119.358 45.4979C119.717 45.0497 120.165 44.6911 120.703 44.5119C121.241 44.2429 121.779 44.1533 122.406 44.1533C123.034 44.1533 123.661 44.2429 124.11 44.5119C124.647 44.7808 125.096 45.0497 125.454 45.4979C125.813 45.9461 126.082 46.484 126.351 47.1115C126.53 47.739 126.619 48.4561 126.619 49.2629V49.8903H126.53ZM125.096 49.1732C125.096 48.5457 125.006 48.0079 124.916 47.4701C124.827 47.0219 124.558 46.5736 124.378 46.2151C124.109 45.8565 123.841 45.6772 123.482 45.4979C123.123 45.3187 122.765 45.229 122.317 45.229C121.868 45.229 121.51 45.3187 121.151 45.4979C120.793 45.6772 120.524 45.9461 120.255 46.2151C119.986 46.5736 119.807 46.9322 119.717 47.4701C119.627 47.9183 119.538 48.5457 119.538 49.1732V49.8903C119.538 50.5178 119.627 51.0557 119.717 51.5935C119.896 52.0417 120.076 52.49 120.345 52.8485C120.613 53.2071 120.882 53.3864 121.241 53.5657C121.6 53.7449 121.958 53.8346 122.406 53.8346C122.855 53.8346 123.303 53.7449 123.661 53.5657C124.02 53.3864 124.289 53.1175 124.558 52.8485C124.827 52.49 125.006 52.1314 125.096 51.5935C125.185 51.1453 125.275 50.5178 125.275 49.8903V49.1732H125.096ZM133.97 53.6553H138.99V54.8206H132.625V44.2429H134.06V53.6553H133.97ZM151.898 44.2429V51.4142C151.898 52.0417 151.809 52.49 151.629 52.9382C151.45 53.3864 151.181 53.7449 150.823 54.0139C150.464 54.2828 150.105 54.5517 149.568 54.6414C149.119 54.8206 148.582 54.8206 148.133 54.8206C147.596 54.8206 147.058 54.731 146.609 54.6414C146.161 54.4621 145.713 54.2828 145.444 54.0139C145.086 53.7449 144.817 53.3864 144.637 52.9382C144.458 52.49 144.368 51.9521 144.368 51.4142V44.2429H145.713V51.4142C145.713 51.8625 145.803 52.221 145.892 52.49C145.982 52.7589 146.161 53.0278 146.43 53.2071C146.609 53.3864 146.878 53.5656 147.237 53.6553C147.506 53.7449 147.864 53.8346 148.223 53.8346C148.582 53.8346 148.94 53.7449 149.209 53.6553C149.478 53.5656 149.747 53.3864 150.016 53.2071C150.195 53.0278 150.374 52.7589 150.464 52.49C150.554 52.221 150.643 51.8625 150.643 51.4142V44.2429H151.898ZM165.345 45.4083H161.938V54.8206H160.593V45.4083H157.187V44.2429H165.345V45.4083ZM172.337 54.8206H170.902V44.2429H172.337V54.8206ZM186.948 49.8903C186.948 50.6971 186.858 51.4143 186.679 52.0417C186.5 52.6692 186.231 53.2071 185.872 53.6553C185.514 54.1035 185.066 54.4621 184.528 54.6414C183.99 54.9103 183.452 54.9999 182.825 54.9999C182.197 54.9999 181.659 54.9103 181.121 54.6414C180.584 54.3724 180.135 54.1035 179.777 53.6553C179.418 53.2071 179.149 52.6692 178.88 52.0417C178.701 51.4143 178.611 50.6971 178.611 49.8903V49.2629C178.611 48.4561 178.701 47.739 178.88 47.1115C179.06 46.484 179.418 45.9461 179.777 45.4979C180.135 45.0497 180.584 44.6911 181.121 44.5119C181.659 44.2429 182.197 44.1533 182.825 44.1533C183.452 44.1533 184.079 44.2429 184.528 44.5119C185.066 44.7808 185.514 45.0497 185.872 45.4979C186.231 45.9461 186.5 46.484 186.769 47.1115C186.948 47.739 187.038 48.4561 187.038 49.2629V49.8903H186.948ZM185.514 49.1732C185.514 48.5457 185.424 48.0079 185.335 47.4701C185.245 47.0219 184.976 46.5736 184.797 46.2151C184.528 45.8565 184.259 45.6772 183.9 45.4979C183.542 45.3187 183.183 45.229 182.735 45.229C182.287 45.229 181.928 45.3187 181.57 45.4979C181.211 45.6772 180.942 45.9461 180.673 46.2151C180.404 46.5736 180.225 46.9322 180.135 47.4701C180.046 47.9183 179.956 48.5457 179.956 49.1732V49.8903C179.956 50.5178 180.046 51.0557 180.135 51.5935C180.315 52.0417 180.494 52.49 180.763 52.8485C181.032 53.2071 181.301 53.3864 181.659 53.5657C182.018 53.7449 182.376 53.8346 182.825 53.8346C183.273 53.8346 183.721 53.7449 184.079 53.5657C184.438 53.3864 184.707 53.1175 184.976 52.8485C185.245 52.49 185.424 52.1314 185.514 51.5935C185.603 51.1453 185.693 50.5178 185.693 49.8903V49.1732H185.514ZM201.022 54.8206H199.587L194.299 46.6633V54.8206H192.864V44.2429H194.299L199.587 52.4003V44.2429H200.932V54.8206H201.022Z" fill="#404040"></path><path fill-rule="evenodd" clip-rule="evenodd" d="M149.119 10.0897V37.251C153.691 37.251 158.173 37.251 162.745 37.251C170.275 37.251 176.37 31.1554 176.37 23.6255C176.37 16.0956 170.275 10 162.745 10C158.263 10.0896 153.691 10.0897 149.119 10.0897ZM189.548 14.2132C195.912 14.2132 201.111 19.4124 201.111 25.7769C201.111 32.1414 195.912 37.3406 189.548 37.3406C183.183 37.3406 177.984 32.1414 177.984 25.7769C177.984 19.3227 183.093 14.2132 189.548 14.2132ZM189.548 18.3367C193.671 18.3367 196.988 21.6534 196.988 25.7769C196.988 29.9004 193.671 33.2171 189.548 33.2171C185.424 33.2171 182.107 29.9004 182.107 25.7769C182.107 21.6534 185.424 18.3367 189.548 18.3367ZM122.944 25.7769C122.944 19.4124 128.143 14.2132 134.508 14.2132C140.872 14.2132 146.072 19.4124 146.072 25.7769V37.251H141.948V25.6872C141.948 21.5637 138.631 18.247 134.508 18.247C130.384 18.247 127.068 21.5637 127.068 25.6872V37.251H122.944V25.7769ZM119.807 25.7769C119.807 19.4124 114.608 14.2132 108.243 14.2132C101.878 14.2132 96.6792 19.4124 96.6792 25.7769C96.6792 32.1414 101.878 37.3406 108.243 37.3406H113.621V33.2171H108.243C104.119 33.2171 100.803 29.9004 100.803 25.7769C100.803 21.6534 104.119 18.3367 108.243 18.3367C112.366 18.3367 115.683 21.6534 115.683 25.7769V37.251H119.807V25.7769ZM99.2789 14.2132V10.0897H87.6255C80.0956 10.0897 74 16.1853 74 23.7152C74 31.245 80.0956 37.3406 87.6255 37.3406H99.2789C97.8446 36.1753 96.5896 34.8307 95.6932 33.2171H87.6255C82.4263 33.2171 78.1235 29.004 78.1235 23.7152C78.1235 18.516 82.3367 14.2132 87.6255 14.2132H99.2789ZM162.745 33.1275H153.243V14.2132H162.745C167.944 14.2132 172.247 18.4263 172.247 23.7152C172.247 28.9144 168.034 33.1275 162.745 33.1275Z" fill="#404040"></path></svg>